<svg width="56" height="49" viewBox="0 0 56 49" fill="none" xmlns="http://www.w3.org/2000/svg">
<rect width="55.6818" height="49" rx="4" fill="url(#paint0_linear_15_33)"/>
<path d="M37.9808 27.1039C37.3724 26.8797 36.7815 26.6195 36.1937 26.3532C36.0277 26.2765 35.9007 26.1118 35.7518 25.9927C35.6861 25.9441 35.6029 25.8972 35.5227 25.8828C35.2485 25.842 35.1276 25.7465 35.0667 25.4767C34.9791 25.1224 34.9178 24.7698 34.9932 24.4014C35.026 24.2385 35.0856 24.1382 35.2376 24.0769C35.5604 23.9516 35.8788 23.8106 36.1985 23.6757C36.4368 23.5754 36.4526 23.4908 36.3632 23.2447C36.089 22.4655 35.8849 21.6709 35.8179 20.8383C35.7772 20.3118 35.7864 19.7739 35.6611 19.2566H35.6392C35.6283 19.2098 35.6221 19.1594 35.6077 19.1125C35.3773 18.2019 34.3992 17.7078 33.5745 17.6531C33.5714 17.6531 33.5653 17.65 33.5556 17.65C33.4943 17.647 33.4334 17.6562 33.3721 17.6592C33.0274 17.7078 32.7484 17.9225 32.4238 18.0184C32.4396 18.2378 32.4567 18.4573 32.4663 18.6596C32.4773 18.8651 32.4882 19.0705 32.5009 19.2724C32.5824 20.2711 32.8145 21.285 33.2315 22.4641C33.6393 23.6117 33.2315 24.5727 32.1575 25.0492C32.1369 25.1903 32.115 25.3331 32.0791 25.4724C32.0305 25.69 31.9175 25.7781 31.7484 25.8328C31.7624 25.8438 31.7799 25.8469 31.794 25.8596C31.9114 25.952 32.0305 26.0619 32.1514 26.1745C32.8382 26.524 33.7597 26.93 34.7019 27.2796C35.895 27.7167 36.6895 28.3579 37.2287 29.0495C38.0408 29.0495 38.848 29.0495 39.6614 29.0495C39.5217 28.0399 38.9107 27.4425 37.9808 27.1039Z" fill="white"/>
<path d="M23.1078 25.4755C23.0749 25.3345 23.0513 25.1934 23.0311 25.0507C21.9572 24.571 21.5546 23.6118 21.9541 22.4691C22.3741 21.2873 22.6063 20.2711 22.6878 19.2699C22.7048 19.0566 22.7145 18.8419 22.7224 18.6207C22.7285 18.425 22.7381 18.2195 22.7539 18.0093C22.3982 17.8056 22.0001 17.6768 21.6238 17.6519C21.6177 17.6519 21.6146 17.6488 21.605 17.6488C21.5424 17.6457 21.4828 17.6549 21.4215 17.658C21.0733 17.7066 20.7929 17.9261 20.4636 18.0202C20.0374 18.1473 19.7724 18.5393 19.6125 18.9655C19.3834 19.569 19.4277 20.2116 19.3773 20.8357C19.3099 21.6666 19.1062 22.4612 18.832 23.2404C18.7426 23.4865 18.7584 23.5711 18.9949 23.6714C19.3164 23.8063 19.6344 23.9473 19.9572 24.0726C20.114 24.1339 20.1705 24.2355 20.2016 24.3971C20.277 24.7624 20.2157 25.1181 20.1281 25.4711C20.0667 25.7409 19.9463 25.8364 19.6721 25.8802C19.5919 25.896 19.5092 25.9381 19.443 25.9902C19.291 26.1062 19.1671 26.2753 19.0011 26.3493C18.4133 26.6191 17.8224 26.8758 17.214 27.1001C16.2846 27.4435 15.6731 28.0405 15.5211 29.0501C16.3314 29.0501 17.1422 29.0501 17.9538 29.0501C18.496 28.3589 19.291 27.7177 20.4824 27.2801C21.4228 26.9306 22.3448 26.5245 23.0421 26.2048C23.1485 26.0607 23.2694 25.9477 23.3978 25.8522C23.4105 25.843 23.4245 25.8382 23.4337 25.8285C23.2646 25.7777 23.1582 25.6871 23.1078 25.4755Z" fill="white"/>
<path d="M42.8325 31.6343V30.2502V21.9422V13.6341C42.8325 12.8737 42.2088 12.25 41.4467 12.25H13.756C12.9943 12.25 12.3689 12.8707 12.3689 13.6341V21.9422V30.2502V31.6343L8.90906 35.7884C8.90906 36.9329 9.8385 37.8636 10.9843 37.8636H44.2166C45.3624 37.8636 46.2919 36.9324 46.2919 35.7884L42.8325 31.6343ZM30.3722 37.1742H24.834C24.6413 37.1742 24.4876 37.0205 24.4876 36.8278C24.4876 36.635 24.6413 36.4813 24.834 36.4813H30.3722C30.5618 36.4813 30.7186 36.635 30.7186 36.8278C30.7138 37.0205 30.5618 37.1742 30.3722 37.1742ZM21.8933 35.7901L22.9497 34.5221H32.2516L33.3081 35.7901H21.8933ZM40.8825 29.1859C40.8825 29.8538 40.3385 30.3943 39.6754 30.3943H36.2441C35.8034 29.6357 35.1044 29.0965 34.1719 28.7501C33.2704 28.4163 32.3835 28.0335 31.507 27.6323C31.2578 27.5193 31.073 27.2718 30.8439 27.0962C30.7467 27.0195 30.6227 26.949 30.5036 26.9315C30.0958 26.8671 29.9158 26.7199 29.8203 26.3187C29.6933 25.7922 29.6026 25.2653 29.7138 24.7182C29.7607 24.4782 29.8487 24.3249 30.0805 24.2338C30.5649 24.0441 31.0384 23.8357 31.5162 23.632C31.8754 23.48 31.8955 23.3547 31.7655 22.9877C31.3533 21.8243 31.0506 20.6395 30.9486 19.3934C30.8873 18.6098 30.9061 17.8039 30.7164 17.0326H30.6836C30.6678 16.9603 30.6586 16.8885 30.6429 16.818C30.2964 15.4575 28.8356 14.7142 27.6066 14.6376C27.5974 14.6376 27.5878 14.6345 27.5768 14.6345C27.4813 14.6284 27.3933 14.6406 27.3009 14.6472C26.7836 14.7208 26.3587 15.0471 25.8682 15.1912C25.2287 15.3791 24.8367 15.9673 24.5953 16.6003C24.2567 17.4999 24.3181 18.4609 24.244 19.3921C24.1437 20.6352 23.8398 21.8204 23.4272 22.9833C23.2971 23.3517 23.3207 23.4769 23.6764 23.6289C24.156 23.8313 24.6264 24.0428 25.1122 24.2294C25.3426 24.3218 25.4319 24.4725 25.4775 24.7152C25.5874 25.264 25.4994 25.7905 25.3723 26.3139C25.2751 26.7182 25.0951 26.8627 24.6873 26.9267C24.5682 26.9486 24.4473 27.0191 24.347 27.0913C24.1196 27.2652 23.9348 27.5162 23.6856 27.6305C22.8061 28.0287 21.9222 28.4141 21.019 28.7483C20.0847 29.0948 19.3905 29.6291 18.9499 30.3895H15.5168C14.8537 30.3895 14.3083 29.8473 14.3083 29.1824V14.6954C14.3083 14.0292 14.8537 13.4869 15.5168 13.4869H39.6697C40.3328 13.4869 40.8781 14.0309 40.8781 14.6954V29.1828H40.8812V29.1859H40.8825Z" fill="white"/>
<defs>
<linearGradient id="paint0_linear_15_33" x1="18.6649" y1="19.5936" x2="62.5606" y2="35.4404" gradientUnits="userSpaceOnUse">
<stop stop-color="#8CB8FF"/>
<stop offset="1" stop-color="#3076E9"/>
</linearGradient>
</defs>
</svg>
