<svg width="52" height="16" viewBox="0 0 52 16" fill="none" xmlns="http://www.w3.org/2000/svg">
<path d="M46.2307 15.1705C46.5948 15.1705 46.9109 14.9936 47.0738 14.7239L51.328 8.06567C51.4429 7.93082 51.5004 7.76226 51.5004 7.58527C51.5004 7.40828 51.4429 7.23972 51.328 7.10487L47.0738 0.446688C46.9109 0.176989 46.5948 -6.23198e-07 46.2307 -6.07283e-07L37.6074 -2.30349e-07C37.2433 -2.14434e-07 36.9271 0.176989 36.7643 0.446688L32.5101 7.10487C32.3951 7.23972 32.3376 7.40828 32.3376 7.58527C32.3376 7.76226 32.3951 7.93082 32.5101 8.06567L36.7643 14.7239C36.9271 14.9936 37.2433 15.1705 37.6074 15.1705L46.2307 15.1705Z" fill="url(#paint0_linear_15_23)"/>
<path d="M23.415 13.1744C23.6729 13.1744 23.8969 13.044 24.0122 12.8452L27.0256 7.93922C27.107 7.83986 27.1477 7.71565 27.1477 7.58524C27.1477 7.45483 27.107 7.33062 27.0256 7.23126L24.0122 2.32523C23.8969 2.12651 23.6729 1.99609 23.415 1.99609L17.3068 1.99609C17.0489 1.99609 16.825 2.12651 16.7096 2.32523L13.6963 7.23126C13.6148 7.33062 13.5741 7.45483 13.5741 7.58524C13.5741 7.71565 13.6148 7.83986 13.6963 7.93922L16.7096 12.8452C16.825 13.044 17.0489 13.1744 17.3068 13.1744L23.415 13.1744Z" fill="url(#paint1_linear_15_23)" fill-opacity="0.6"/>
<path d="M5.78901 10.7792C5.94071 10.7792 6.07245 10.7047 6.14032 10.5911L7.91288 7.78767C7.96079 7.73089 7.98474 7.65992 7.98474 7.5854C7.98474 7.51088 7.96079 7.4399 7.91288 7.38313L6.14032 4.57968C6.07245 4.46612 5.94071 4.3916 5.789 4.3916L2.19598 4.3916C2.04428 4.3916 1.91253 4.46612 1.84466 4.57968L0.0721048 7.38313C0.0241978 7.4399 0.000244277 7.51088 0.00024428 7.5854C0.000244283 7.65992 0.0241978 7.7309 0.0721048 7.78767L1.84466 10.5911C1.91253 10.7047 2.04428 10.7792 2.19598 10.7792L5.78901 10.7792Z" fill="url(#paint2_linear_15_23)" fill-opacity="0.2"/>
<defs>
<linearGradient id="paint0_linear_15_23" x1="40.0002" y1="5.08527" x2="43.1978" y2="17.7991" gradientUnits="userSpaceOnUse">
<stop stop-color="#8CB8FF"/>
<stop offset="1" stop-color="#3076E9"/>
</linearGradient>
<linearGradient id="paint1_linear_15_23" x1="19.0018" y1="5.74313" x2="21.4408" y2="15.0657" gradientUnits="userSpaceOnUse">
<stop stop-color="#8CB8FF"/>
<stop offset="1" stop-color="#3076E9"/>
</linearGradient>
<linearGradient id="paint2_linear_15_23" x1="3.19299" y1="6.53277" x2="4.55181" y2="11.8792" gradientUnits="userSpaceOnUse">
<stop stop-color="#8CB8FF"/>
<stop offset="1" stop-color="#3076E9"/>
</linearGradient>
</defs>
</svg>
