<svg width="52" height="16" viewBox="0 0 52 16" fill="none" xmlns="http://www.w3.org/2000/svg">
<path d="M5.76982 15.1705C5.40572 15.1705 5.08954 14.9936 4.92666 14.7239L0.672516 8.06567C0.557539 7.93082 0.500051 7.76226 0.500051 7.58527C0.500051 7.40828 0.557539 7.23972 0.672516 7.10487L4.92666 0.446688C5.08954 0.176989 5.40572 -6.23198e-07 5.76982 -6.07283e-07L14.3931 -2.30349e-07C14.7572 -2.14434e-07 15.0734 0.176989 15.2362 0.446688L19.4904 7.10487C19.6054 7.23972 19.6628 7.40828 19.6628 7.58527C19.6628 7.76226 19.6054 7.93082 19.4904 8.06567L15.2362 14.7239C15.0734 14.9936 14.7572 15.1705 14.3931 15.1705L5.76982 15.1705Z" fill="url(#paint0_linear_15_27)"/>
<path d="M28.5855 13.1744C28.3276 13.1744 28.1036 13.044 27.9883 12.8452L24.9749 7.93922C24.8935 7.83986 24.8527 7.71565 24.8527 7.58524C24.8527 7.45483 24.8935 7.33062 24.9749 7.23126L27.9883 2.32523C28.1036 2.12651 28.3276 1.99609 28.5855 1.99609L34.6936 1.99609C34.9515 1.99609 35.1755 2.12651 35.2909 2.32523L38.3042 7.23126C38.3857 7.33062 38.4264 7.45483 38.4264 7.58524C38.4264 7.71565 38.3857 7.83986 38.3042 7.93922L35.2909 12.8452C35.1755 13.044 34.9515 13.1744 34.6936 13.1744L28.5855 13.1744Z" fill="url(#paint1_linear_15_27)" fill-opacity="0.6"/>
<path d="M46.2115 10.7792C46.0598 10.7792 45.928 10.7047 45.8602 10.5911L44.0876 7.78767C44.0397 7.73089 44.0157 7.65992 44.0157 7.5854C44.0157 7.51088 44.0397 7.4399 44.0876 7.38313L45.8602 4.57968C45.928 4.46612 46.0598 4.3916 46.2115 4.3916L49.8045 4.3916C49.9562 4.3916 50.088 4.46612 50.1558 4.57968L51.9284 7.38313C51.9763 7.4399 52.0002 7.51088 52.0002 7.5854C52.0002 7.65992 51.9763 7.7309 51.9284 7.78767L50.1558 10.5911C50.088 10.7047 49.9562 10.7792 49.8045 10.7792L46.2115 10.7792Z" fill="url(#paint2_linear_15_27)" fill-opacity="0.6"/>
<defs>
<linearGradient id="paint0_linear_15_27" x1="12.0002" y1="5.08527" x2="8.80265" y2="17.7991" gradientUnits="userSpaceOnUse">
<stop stop-color="#8CB8FF"/>
<stop offset="1" stop-color="#3076E9"/>
</linearGradient>
<linearGradient id="paint1_linear_15_27" x1="32.9987" y1="5.74313" x2="30.5597" y2="15.0657" gradientUnits="userSpaceOnUse">
<stop stop-color="#8CB8FF"/>
<stop offset="1" stop-color="#3076E9"/>
</linearGradient>
<linearGradient id="paint2_linear_15_27" x1="48.8075" y1="6.53277" x2="47.4487" y2="11.8792" gradientUnits="userSpaceOnUse">
<stop stop-color="#8CB8FF"/>
<stop offset="1" stop-color="#3076E9"/>
</linearGradient>
</defs>
</svg>
